#!OML:ASF E:/inclinewalkrobotboard/Project1/Captureday1/Session1/subject1.ASF
:FULLY-SPECIFIED
:DEGREES
388
root 0 0 0 17.428823693622 -4.403853351594323 -1.4351290005740562
lowerback 21.422827938946146 -3.25353824823362 -1.1912846799989163
upperback -0.8255234427681071 -4.814768825390009 3.8460540674452197
thorax -12.705094112016226 -2.145765030722708 5.236200658095637
lowerneck -9.630528107164448 9.37845198682889 18.634807169073298
upperneck 21.366411456848244 11.008625066543447 -8.32802418717696
head 9.801104868055361 5.95421839411592 -4.622216445645486
rclavicle 1.0756984921808584E-15 6.192926044709933E-15
rhumerus 29.283655867107626 17.441236776251348 -72.79488755606684
rradius 103.45749777482861
rwrist -39.34551565965618
rhand -24.44208706118068 -24.328715198034246
rfingers 7.125019999999997
rthumb 2.0877043346946422 -54.75160472179441
lclavicle -3.0213986425685804E-15 6.43282716565448E-15
lhumerus 25.89077601859615 -35.03616658873958 73.1463165045892
lradius 141.83912268444996
lwrist 8.73043340717139
lhand -33.305278651784846 8.22239512552693
lfingers 7.125019999999941
lthumb -6.476907170772485 38.6796409469769
rfemur -49.73810264679378 3.4301656897275112 29.08317512540606
rtibia 45.23158274092862
rfoot -22.560608630611416 -3.8688369698906815
rtoes -43.514121430879484
lfemur -37.238030338673674 -21.775509591073686 -13.062143916616527
ltibia 13.807687265443306
lfoot -45.24832644579469 6.888346305567835
ltoes -34.21532091659949
389
root 0 0 0 17.429996794153812 -4.407376658010959 -1.4322190794402512
lowerback 21.42642784168473 -3.2530497672397978 -1.1904140518652504
upperback -0.8242594497751963 -4.81395388092855 3.846836117160481
thorax -12.705829729575619 -2.145437279916791 5.23615420862026
lowerneck -9.631832428042475 9.376588981757525 18.63312949498329
upperneck 21.36397088502782 11.006059036789383 -8.327735926717219
head 9.8000859006774 5.952843595013256 -4.6220577902076645
rclavicle 1.0141426698229243E-15 6.1280455466519E-15
rhumerus 29.32225984921907 17.35770290418593 -72.73831452047743
rradius 103.40835705952422
rwrist -39.35397841928852
rhand -24.444735611767506 -24.347920860342942
rfingers 7.125019999999997
rthumb 2.085208430746821 -54.771115684739335
lclavicle -3.093303633910079E-15 6.368759200595533E-15
lhumerus 25.88822677568553 -35.09850433849371 73.18645864696444
lradius 141.87928841846252
lwrist 8.749747055948706
lhand -33.318935432215795 8.227417396891614
lfingers 7.125019999999941
lthumb -6.490220742613943 38.685542084431574
rfemur -49.89388654187789 3.478440729381532 29.060722633728066
rtibia 45.29372642378301
rfoot -22.69094306641632 -3.8509864045973163
rtoes -43.42087412591053
lfemur -37.80222959980624 -21.467960808232455 -13.061809654970027
ltibia 14.660181154694538
lfoot -45.099429197779756 6.646738878559988
ltoes -34.338805511329674
390
root 0 0 0 17.433974214371766 -4.404808784350484 -1.4298394004075612
lowerback 21.424500019438973 -3.2524329483409566 -1.1873397863304385
upperback -0.8244795287373261 -4.812401830009361 3.8497795121886735
thorax -12.705258603764783 -2.1447434803634557 5.237278041855076
lowerneck -9.631991642927296 9.372226137793598 18.630007994579795
upperneck 21.365059846601884 10.999542773992523 -8.32552735460944
head 9.79944683565471 5.949767890236189 -4.621471850316338
rclavicle 9.761588825853227E-16 6.052587465253299E-15
rhumerus 29.336725727644108 17.40767949094554 -72.75740635449102
rradius 103.60850201863221
rwrist -39.44598873619798
rhand -24.449313084197847 -24.34137482537986
rfingers 7.125019999999997
rthumb 2.0806058627115096 -54.76498843314396
lclavicle -3.1688208957587725E-15 6.292137677852999E-15
lhumerus 25.88094955393447 -35.17884144737123 73.2406752169596
lradius 141.92919665849703
lwrist 8.776390210919534
lhand -33.334975496805924 8.234944984624693
lfingers 7.12501999999994
lthumb -6.505894694036092 38.69413462865482
rfemur -49.97273956434049 3.5074799522404714 29.06509488356499
rtibia 45.332534283125725
rfoot -22.788788051115496 -3.83201454611984
rtoes -43.34675758070517
lfemur -38.43916654529004 -21.13527085436445 -13.048397375689184
ltibia 15.586343296263966
lfoot -44.948964977417205 6.3895237773351505
ltoes -34.47539263090416
391
root 0 0 0 17.440356714276422 -4.396672261545964 -1.427987947961126
lowerback 21.417580374223228 -3.2516986823374827 -1.1823688854435237
upperback -0.8260534661932031 -4.810198832820017 3.8545940777466337
thorax -12.703517695503926 -2.143723912623575 5.23942987297772
lowerneck -9.63106278154738 9.365672808177388 18.62555768506602
upperneck 21.369173632609474 10.989629626864115 -8.321793011959329
head 9.799124099550948 5.945209983901904 -4.620549474040086
rclavicle 9.63807870029267E-16 5.9707627059177595E-15
rhumerus 29.327723292377964 17.58544852602097 -72.84960749371504
rradius 104.03575296077011
rwrist -39.61268547865025
rhand -24.455736966879947 -24.309774584928547
rfingers 7.125019999999996
rthumb 2.0739877680324437 -54.73391105456281
lclavicle -3.2438058215026338E-15 6.20751280316141E-15
lhumerus 25.869117596071973 -35.27236527112507 73.30582544048188
lradius 141.98560591797826
lwrist 8.80878665364224
lhand -33.35231559204781 8.244610688320826
lfingers 7.12501999999994
lthumb -6.522868969241653 38.704980521173255
rfemur -49.979379828193345 3.5186769088090184 29.093933946003364
rtibia 45.3484540777907
rfoot -22.854376144757065 -3.812769469272128
rtoes -43.29254295092459
lfemur -39.115734265543686 -20.793430009630512 -13.024784570998603
ltibia 16.54369767839151
lfoot -44.80250279842318 6.127274348928407
ltoes -34.61785906303874
392
root 0 0 0 17.44864262095027 -4.383686755681861 -1.4266000640788818
lowerback 21.406321747217078 -3.2508748390302733 -1.1758941691795952
upperback -0.8288082129878509 -4.807469152410224 3.86093452934138
thorax -12.700753198142095 -2.1424356537946627 5.242458835993704
lowerneck -9.629175984540952 9.357270240618806 18.619874632510836
upperneck 21.37577811055765 10.976928180691184 -8.316958219366729
head 9.79905944905106 5.939406101720831 -4.6193842295937255
rclavicle 9.765035837950818E-16 5.8859908465624446E-15
rhumerus 29.297274189445336 17.876095804886134 -73.0076626518695
rradius 104.64912896992108
rwrist -39.839140048806605
rhand -24.463767956758247 -24.255019243461057
rfingers 7.125019999999996
rthumb 2.065607537013113 -54.679762249331
lclavicle -3.3144420774648656E-15 6.119351694204598E-15
lhumerus 25.853185185941783 -35.37373653293432 73.37828671427584
lradius 142.0451304944637
lwrist 8.845091752806743
lhand -33.369894860136014 8.255916638873149
lfingers 7.125019999999939
lthumb -6.5401040607821805 38.71750932280245
rfemur -49.92037419451731 3.5141127004364066 29.144361803903944
rtibia 45.342391361567195
rfoot -22.889072461308114 -3.7941505013563326
rtoes -43.25799952748385
lfemur -39.7961726989173 -20.459240282805865 -12.993914137794691
ltibia 17.486164463374124
lfoot -44.6658884535463 5.872023713395324
ltoes -34.759000819271584
393
root 0 0 0 17.458264315926897 -4.366707894647957 -1.4255928774738242
lowerback 21.3914485389193 -3.2500037210402315 -1.1683646230627203
upperback -0.8325436725786783 -4.8043682074192615 3.868413147987379
thorax -12.69711388904106 -2.1409497544677314 5.246203865227619
lowerneck -9.626530274327944 9.347405152194233 18.61308777348216
upperneck 21.384402601611967 10.962089412846387 -8.311400298842193
head 9.799226998359416 5.932619018412566 -4.618055452654687
rclavicle 1.0112892107782701E-15 5.801277417518446E-15
rhumerus 29.248382544288294 18.256651093340146 -73.22002808530657
rradius 105.39360029371976
rwrist -40.10594384071672
rhand -24.472955485469292 -24.18030316010376
rfingers 7.125019999999995
rthumb 2.0559349916816227 -54.60570099167841
lclavicle -3.3772123610291778E-15 6.032067551988083E-15
lhumerus 25.83392904266139 -35.477190225656045 73.4539955269508
lradius 142.10432562487162
lwrist 8.883219959479518
lhand -33.38670456277568 8.268230968437999
lfingers 7.125019999999939
lthumb -6.556610354367393 38.73101714733348
rfemur -49.80301747271779 3.495979704163654 29.213123983552286
rtibia 45.315522221069706
rfoot -22.89438947537723 -3.777109860838756
rtoes -43.24256755326703
lfemur -40.44247786672873 -20.150544726816275 -12.958364876940026
ltibia 18.36341125180225
lfoot -44.545757414881024 5.637493014833172
ltoes -34.89147357440717
394
root 0 0 0 17.468617451767365 -4.346709734660765 -1.4249050560412515
lowerback 21.373751407912803 -3.249141773959404 -1.16026366431571
upperback -0.8370391746662813 -4.801080992923504 3.8766055787625424
thorax -12.692757733307399 -2.1393513289810038 5.250487928225793
lowerneck -9.623374924928424 9.33653734424746 18.605415024423273
upperneck 21.39465389834246 10.945829340151475 -8.305420049209491
head 9.799638391210499 5.925157983610273 -4.616624361668785
rclavicle 1.0632807182076805E-15 5.719688757648436E-15
rhumerus 29.184669240084446 18.6980526430696 -73.47158390978126
rradius 106.20691282956079
rwrist -40.39148334930427
rhand -24.48262062554172 -24.09015313452666
rfingers 7.125019999999994
rthumb 2.0456743477801567 -54.516203262256205
lclavicle -3.4289375558438012E-15 5.950058992101659E-15
lhumerus 25.812474185167673 -35.57670970058519 73.52854342208965
lradius 142.15980482129402
lwrist 8.920905712947533
lhand -33.401822039986726 8.280801485222684
lfingers 7.125019999999939
lthumb -6.5714814248718305 38.744683233824844
rfemur -49.63490703757058 3.466267338398781 29.296593930347232
rtibia 45.26927985194503
rfoot -22.87149718192698 -3.7626337808998187
rtoes -43.24578184259806
lfemur -41.01557702288897 -19.885996381583855 -12.920055804691213
ltibia 19.121762214587093
lfoot -44.4497623057447 5.4388146673625
ltoes -35.00769893662151
395
root 0 0 0 17.479086658602732 -4.324791556961507 -1.4245282757457352
lowerback 21.35410625203189 -3.2483607936625356 -1.1520905128752315
upperback -0.842054468704589 -4.797823178441596 3.885055758966006
thorax -12.6878672157106 -2.1377411687762273 5.255111944088558
lowerneck -9.61997379745284 9.325228675165635 18.59721045444458
upperneck 21.40615932599298 10.928970761122995 -8.299262306807837
head 9.800326261445672 5.91740091106623 -4.615142663632648
rclavicle 1.1263798204148864E-15 5.6447698420720675E-15
rhumerus 29.110076834302767 19.16780397940711 -73.74469158204019
rradius 107.02713920982995
rwrist -40.674451730022966
rhand -24.491903269793383 -23.99031408988052
rfingers 7.125019999999993
rthumb 2.035718110710217 -54.416952396753
lclavicle -3.4668639228095275E-15 5.877720251033011E-15
lhumerus 25.790280307597655 -35.666268553424764 73.59733823990479
lradius 142.20837830287505
lwrist 8.955800835218053
lhand -33.41444393047754 8.292790224443074
lfingers 7.125019999999938
lthumb -6.58392652449673 38.75760763241138
rfemur -49.42395884277641 3.4266534820241734 29.390718812601392
rtibia 45.20543582843279
rfoot -22.821135674297242 -3.7517052559607738
rtoes -43.267464154916524
lfemur -41.47721855283686 -19.68427681798574 -12.880140493134505
ltibia 19.706772482804514
lfoot -44.38634559098233 5.291709439459202
ltoes -35.09996381087984
